<svg xmlns="http://www.w3.org/2000/svg" xml:space="preserve" width="2000" height="480" viewBox="450 50 800 240" data-version="1" data-id="lg_3jav4cAMzpiDiCAINo">
  <g id="outer-wrapper" data-padding="0" transform="matrix(1,0,0,1,0,0)">
    <g id="inner-wrapper" transform="matrix(0.9642857142857143,0,0,0.9642857142857143,10,6.428571428571416)">
      <rect width="560" height="360.47" x="86.90740740740739" y="-400.475" fill="none" rx="0" ry="0" transform="translate(400.5 400.24)"></rect>
      <path fill="#ff851b" d="M601.7674074074074 159.3H620.2674074074074V59.78000000000003H725.2174074074073V280.21000000000004H620.2674074074074V205.88000000000005H601.7674074074074V280.21000000000004H497.1374074074074V59.77999999999997H601.7674074074074ZM1042.6274074074074 59.78000000000003L1011.9974074074074 280.21000000000004H898.4374074074074L893.3374074074073 219.60000000000002H886.6374074074073L881.8474074074073 280.21000000000004H769.8774074074074L738.6174074074074 59.78000000000003H835.9174074074074L844.2074074074075 164.41000000000003H850.9074074074074L858.5574074074075 65.20000000000005H922.9974074074074L931.6174074074074 164.41000000000003H938.6274074074074L946.6074074074074 59.78000000000003Z"></path>
    </g>
  </g>
</svg>